<!-- <svg xmlns="http://www.w3.org/2000/svg" width="1em" height="1em" viewBox="0 0 24 24"><defs><mask id="solarCardBold0"><g fill="none"><path fill="#fff" d="M14 4h-4C6.229 4 4.343 4 3.172 5.172c-.844.843-1.08 2.057-1.146 4.078h19.948c-.066-2.021-.302-3.235-1.146-4.078C19.657 4 17.771 4 14 4m-4 16h4c3.771 0 5.657 0 6.828-1.172S22 15.771 22 12q0-.662-.002-1.25H2.002Q1.999 11.338 2 12c0 3.771 0 5.657 1.172 6.828S6.229 20 10 20"/><path fill="#000" fill-rule="evenodd" d="M5.25 16a.75.75 0 0 1 .75-.75h4a.75.75 0 0 1 0 1.5H6a.75.75 0 0 1-.75-.75m6.5 0a.75.75 0 0 1 .75-.75H14a.75.75 0 0 1 0 1.5h-1.5a.75.75 0 0 1-.75-.75" clip-rule="evenodd"/></g></mask></defs><path fill="currentColor" d="M0 0h24v24H0z" mask="url(#solarCardBold0)"/></svg> -->
<svg width="41" height="40" viewBox="0 0 41 40" fill="none" xmlns="http://www.w3.org/2000/svg">
<mask id="mask0_1660_67" style="mask-type:luminance" maskUnits="userSpaceOnUse" x="3" y="6" width="35" height="28">
<path d="M23.8334 6.6665H17.1668C10.8818 6.6665 7.73842 6.6665 5.78676 8.61984C4.38009 10.0248 3.98676 12.0482 3.87676 15.4165H37.1234C37.0134 12.0482 36.6201 10.0248 35.2134 8.61984C33.2618 6.6665 30.1184 6.6665 23.8334 6.6665ZM17.1668 33.3332H23.8334C30.1184 33.3332 33.2618 33.3332 35.2134 31.3798C37.1651 29.4265 37.1668 26.2848 37.1668 19.9998C37.1668 19.2643 37.1656 18.5698 37.1634 17.9165H3.83676C3.83342 18.5698 3.83231 19.2643 3.83342 19.9998C3.83342 26.2848 3.83342 29.4282 5.78676 31.3798C7.74009 33.3315 10.8818 33.3332 17.1668 33.3332Z" fill="white"/>
<path fill-rule="evenodd" clip-rule="evenodd" d="M9.25 26.6665C9.25 26.335 9.3817 26.017 9.61612 25.7826C9.85054 25.5482 10.1685 25.4165 10.5 25.4165H17.1667C17.4982 25.4165 17.8161 25.5482 18.0505 25.7826C18.285 26.017 18.4167 26.335 18.4167 26.6665C18.4167 26.998 18.285 27.316 18.0505 27.5504C17.8161 27.7848 17.4982 27.9165 17.1667 27.9165H10.5C10.1685 27.9165 9.85054 27.7848 9.61612 27.5504C9.3817 27.316 9.25 26.998 9.25 26.6665ZM20.0833 26.6665C20.0833 26.335 20.215 26.017 20.4495 25.7826C20.6839 25.5482 21.0018 25.4165 21.3333 25.4165H23.8333C24.1649 25.4165 24.4828 25.5482 24.7172 25.7826C24.9516 26.017 25.0833 26.335 25.0833 26.6665C25.0833 26.998 24.9516 27.316 24.7172 27.5504C24.4828 27.7848 24.1649 27.9165 23.8333 27.9165H21.3333C21.0018 27.9165 20.6839 27.7848 20.4495 27.5504C20.215 27.316 20.0833 26.998 20.0833 26.6665Z" fill="black"/>
</mask>
<g mask="url(#mask0_1660_67)">
<path d="M0.5 0H40.5V40H0.5V0Z" fill="white"/>
</g>
</svg>
