<svg width="106" height="105" viewBox="0 0 106 105" fill="none" xmlns="http://www.w3.org/2000/svg">
<rect x="0.5" width="105" height="105" rx="52.5" fill="#8099B2"/>
<path d="M36.8333 38.4167C36.8333 37.8641 37.0528 37.3342 37.4435 36.9435C37.8342 36.5528 38.3641 36.3333 38.9167 36.3333H45.8611C46.4136 36.3333 46.9435 36.5528 47.3342 36.9435C47.7249 37.3342 47.9444 37.8641 47.9444 38.4167C47.9444 38.9692 47.7249 39.4991 47.3342 39.8898C46.9435 40.2805 46.4136 40.5 45.8611 40.5H43.9444L48.7222 45.2778C48.9269 45.4685 49.0911 45.6985 49.2049 45.9541C49.3188 46.2096 49.38 46.4855 49.385 46.7652C49.3899 47.0449 49.3385 47.3228 49.2337 47.5822C49.1289 47.8416 48.9729 48.0773 48.7751 48.2751C48.5773 48.4729 48.3416 48.6289 48.0822 48.7337C47.8228 48.8385 47.5449 48.8899 47.2652 48.885C46.9855 48.88 46.7096 48.8188 46.4541 48.7049C46.1985 48.5911 45.9685 48.4269 45.7778 48.2222L41 43.4444V45.3639C41 45.9164 40.7805 46.4463 40.3898 46.837C39.9991 47.2277 39.4692 47.4472 38.9167 47.4472C38.3641 47.4472 37.8342 47.2277 37.4435 46.837C37.0528 46.4463 36.8333 45.9164 36.8333 45.3639V38.4167ZM68.0833 69.6694C68.6359 69.6694 69.1658 69.45 69.5565 69.0592C69.9472 68.6685 70.1667 68.1386 70.1667 67.5861V60.6389C70.1667 60.0864 69.9472 59.5564 69.5565 59.1658C69.1658 58.775 68.6359 58.5556 68.0833 58.5556C67.5308 58.5556 67.0009 58.775 66.6102 59.1658C66.2195 59.5564 66 60.0864 66 60.6389V62.5556L61.2222 57.7778C60.8273 57.4098 60.3049 57.2094 59.7652 57.219C59.2255 57.2285 58.7105 57.4471 58.3288 57.8288C57.9471 58.2105 57.7285 58.7255 57.719 59.2652C57.7094 59.8049 57.9098 60.3273 58.2778 60.7222L63.0556 65.5028H61.1389C60.5864 65.5028 60.0564 65.7223 59.6658 66.113C59.275 66.5037 59.0556 67.0336 59.0556 67.5861C59.0556 68.1386 59.275 68.6685 59.6658 69.0592C60.0564 69.45 60.5864 69.6694 61.1389 69.6694H68.0833ZM69.5556 36.9472C69.95 37.3361 70.1667 37.8639 70.1667 38.4194V45.3639C70.1667 45.9164 69.9472 46.4463 69.5565 46.837C69.1658 47.2277 68.6359 47.4472 68.0833 47.4472C67.5308 47.4472 67.0009 47.2277 66.6102 46.837C66.2195 46.4463 66 45.9164 66 45.3639V43.4472L61.2222 48.225C61.0299 48.4239 60.8 48.5825 60.5458 48.6916C60.2915 48.8006 60.0181 48.858 59.7415 48.8602C59.4649 48.8625 59.1906 48.8097 58.9346 48.7048C58.6786 48.5999 58.4461 48.4451 58.2506 48.2494C58.055 48.0537 57.9005 47.821 57.7958 47.5649C57.6912 47.3089 57.6386 47.0345 57.6411 46.7579C57.6437 46.4813 57.7013 46.2079 57.8106 45.9538C57.9199 45.6997 58.0787 45.4699 58.2778 45.2778L63.0556 40.5H61.1389C60.5864 40.5 60.0564 40.2805 59.6658 39.8898C59.275 39.4991 59.0556 38.9692 59.0556 38.4167C59.0556 37.8641 59.275 37.3342 59.6658 36.9435C60.0564 36.5528 60.5864 36.3333 61.1389 36.3333H68.0833C68.6357 36.3338 69.1652 36.5536 69.5556 36.9444M36.8333 67.5833C36.8333 68.1359 37.0528 68.6658 37.4435 69.0565C37.8342 69.4472 38.3641 69.6667 38.9167 69.6667H45.8639C46.4164 69.6667 46.9463 69.4472 47.337 69.0565C47.7277 68.6658 47.9472 68.1359 47.9472 67.5833C47.9472 67.0308 47.7277 66.5009 47.337 66.1102C46.9463 65.7195 46.4164 65.5 45.8639 65.5H43.9472L48.725 60.7222C49.1043 60.3291 49.3141 59.8028 49.3091 59.2565C49.3041 58.7103 49.0847 58.1879 48.6983 57.8018C48.3118 57.4157 47.7892 57.1968 47.2429 57.1923C46.6967 57.1879 46.1705 57.3981 45.7778 57.7778L41 62.5556V60.6389C41 60.0864 40.7805 59.5564 40.3898 59.1658C39.9991 58.775 39.4692 58.5556 38.9167 58.5556C38.3641 58.5556 37.8342 58.775 37.4435 59.1658C37.0528 59.5564 36.8333 60.0864 36.8333 60.6389V67.5833ZM28.5 34.25C28.5 32.5924 29.1585 31.0027 30.3306 29.8306C31.5027 28.6585 33.0924 28 34.75 28H72.25C73.9076 28 75.4973 28.6585 76.6694 29.8306C77.8415 31.0027 78.5 32.5924 78.5 34.25V71.75C78.5 73.4076 77.8415 74.9973 76.6694 76.1694C75.4973 77.3415 73.9076 78 72.25 78H34.75C33.0924 78 31.5027 77.3415 30.3306 76.1694C29.1585 74.9973 28.5 73.4076 28.5 71.75V34.25ZM34.75 32.1667C34.1975 32.1667 33.6676 32.3862 33.2769 32.7769C32.8862 33.1676 32.6667 33.6975 32.6667 34.25V71.75C32.6667 72.9 33.6 73.8333 34.75 73.8333H72.25C72.8025 73.8333 73.3324 73.6138 73.7231 73.2231C74.1138 72.8324 74.3333 72.3025 74.3333 71.75V34.25C74.3333 33.6975 74.1138 33.1676 73.7231 32.7769C73.3324 32.3862 72.8025 32.1667 72.25 32.1667H34.75Z" fill="white"/>
</svg>
