<svg width="106" height="105" viewBox="0 0 106 105" fill="none" xmlns="http://www.w3.org/2000/svg">
<rect x="0.5" width="105" height="105" rx="52.5" fill="#8099B2"/>
<path d="M36 63.0003L48.5002 55.5003M58.5003 50.5002L71.0004 43.0001M53.5002 35.5V48.0002M53.5002 58.0003V70.5004M36 43.0001L48.5002 50.5002M58.5003 55.5003L71.0004 63.0003M74.7505 45.5001V59.2503M57.2503 74.2505L71.0004 66.7504M34.75 66.7504L49.7502 74.2505M32.25 60.5003V45.5001M34.75 39.2501L49.7502 31.75M72.2504 39.2501L57.2503 31.75" stroke="white" stroke-width="3.75004" stroke-linecap="round" stroke-linejoin="round"/>
<path d="M53.5 35.5001C55.5711 35.5001 57.2501 33.8211 57.2501 31.75C57.2501 29.679 55.5711 28 53.5 28C51.429 28 49.75 29.679 49.75 31.75C49.75 33.8211 51.429 35.5001 53.5 35.5001Z" stroke="white" stroke-width="3.75004" stroke-linecap="round" stroke-linejoin="round"/>
<path d="M53.5 78.0001C55.5711 78.0001 57.2501 76.3211 57.2501 74.25C57.2501 72.179 55.5711 70.5 53.5 70.5C51.429 70.5 49.75 72.179 49.75 74.25C49.75 76.3211 51.429 78.0001 53.5 78.0001Z" stroke="white" stroke-width="3.75004" stroke-linecap="round" stroke-linejoin="round"/>
<path d="M32.25 45.4981C34.3211 45.4981 36.0001 43.8192 36.0001 41.7481C36.0001 39.677 34.3211 37.998 32.25 37.998C30.179 37.998 28.5 39.677 28.5 41.7481C28.5 43.8192 30.179 45.4981 32.25 45.4981Z" stroke="white" stroke-width="3.75004" stroke-linecap="round" stroke-linejoin="round"/>
<path d="M74.75 45.5001C76.8211 45.5001 78.5001 43.8211 78.5001 41.75C78.5001 39.679 76.8211 38 74.75 38C72.679 38 71 39.679 71 41.75C71 43.8211 72.679 45.5001 74.75 45.5001Z" stroke="white" stroke-width="3.75004" stroke-linecap="round" stroke-linejoin="round"/>
<path d="M74.75 68.0001C76.8211 68.0001 78.5001 66.3211 78.5001 64.25C78.5001 62.179 76.8211 60.5 74.75 60.5C72.679 60.5 71 62.179 71 64.25C71 66.3211 72.679 68.0001 74.75 68.0001Z" stroke="white" stroke-width="3.75004" stroke-linecap="round" stroke-linejoin="round"/>
<path d="M32.25 68.0001C34.3211 68.0001 36.0001 66.3211 36.0001 64.25C36.0001 62.179 34.3211 60.5 32.25 60.5C30.179 60.5 28.5 62.179 28.5 64.25C28.5 66.3211 30.179 68.0001 32.25 68.0001Z" stroke="white" stroke-width="3.75004" stroke-linecap="round" stroke-linejoin="round"/>
<path d="M53.5001 47.375L58.5001 50.1875V55.8126L53.5001 58.6251L48.5 55.8126V50.1875L53.5001 47.375Z" stroke="white" stroke-width="3.75004" stroke-linecap="round" stroke-linejoin="round"/>
</svg>
