<svg width="106" height="105" viewBox="0 0 106 105" fill="none" xmlns="http://www.w3.org/2000/svg">
<rect x="0.5" width="105" height="105" rx="52.5" fill="#8099B2"/>
<path fill-rule="evenodd" clip-rule="evenodd" d="M38.0266 74.9549V75.2883C38.0266 76.0074 37.7398 76.697 37.2294 77.2054C36.7189 77.7138 36.0266 77.9994 35.3047 77.9994H31.2219C30.5 77.9994 29.8077 77.7138 29.2972 77.2054C28.7868 76.697 28.5 76.0074 28.5 75.2883V60.384C28.5 59.665 28.7868 58.9754 29.2972 58.467C29.8077 57.9585 30.5 57.6729 31.2219 57.6729H35.3047C35.9177 57.6726 36.5128 57.8785 36.9937 58.2571C37.4746 58.6357 37.8132 59.165 37.9545 59.7591C39.7563 59.1125 41.8617 58.3425 42.5054 58.0497C43.0525 57.8017 43.684 57.7176 44.2093 57.6864C44.7515 57.66 45.2948 57.6695 45.8357 57.7149C46.4412 57.764 47.0442 57.84 47.643 57.9426L47.6743 57.9481L47.6838 57.9494H47.6879L47.7124 57.9548L56.8171 59.9882L56.8729 60.0072L56.8878 60.0126L56.9505 60.0316L57.2077 60.1048C57.4322 60.1671 57.7548 60.2498 58.1399 60.3338C58.9225 60.5033 59.9091 60.6619 60.8278 60.6619C61.677 60.6619 62.5562 60.9777 63.0243 61.8344C63.4272 62.5692 63.3333 63.3771 63.1836 63.9356C62.9944 64.6323 62.6052 65.3643 62.1111 65.9865C62.778 65.7357 63.5088 65.4389 64.2927 65.119L64.4601 65.0512C66.6689 64.147 69.2874 63.0761 71.5983 62.6966C74.2385 62.2614 76.1588 63.2158 77.0298 64.9088C77.8055 66.4162 77.6259 68.394 76.4582 69.5855C76.1656 69.8851 75.7192 70.1996 75.2714 70.4883C74.7924 70.7987 74.2031 71.1471 73.5485 71.5185C72.0445 72.3571 70.5222 73.1625 68.9825 73.9341C65.7544 75.5649 62.3711 77.1509 61.2959 77.5426C60.0493 77.9967 58.7101 78.0401 57.4241 77.9737C56.6474 77.9256 55.8719 77.8601 55.0982 77.7771C54.5318 77.7187 53.9647 77.6668 53.397 77.6212C50.7731 77.4233 48.759 76.7849 46.9054 76.1979L46.6794 76.1261C44.7632 75.5215 42.9804 74.9833 40.6192 74.8884C40.0802 74.8668 39.0024 74.9088 38.0266 74.9549ZM43.6337 60.5155C43.7221 60.4748 43.9535 60.4165 44.3658 60.3921C44.7523 60.3691 45.1933 60.384 45.6247 60.4165C46.1408 60.4587 46.6549 60.5233 47.1653 60.6104H47.1694L56.1067 62.6071L56.1679 62.6261C56.2432 62.6496 56.3476 62.6794 56.4809 62.7156C56.7449 62.7888 57.1178 62.885 57.5602 62.9812C58.3563 63.1548 59.4246 63.3364 60.5107 63.3676C60.4139 63.6284 60.284 63.8757 60.1242 64.1036C59.9064 64.4181 59.6682 64.6608 59.4723 64.8004C58.9061 65.2044 58.4488 65.3724 58.1712 65.4443C58.0767 65.4703 57.9802 65.4884 57.8827 65.4985H57.8528L50.5554 65.4118L50.2968 68.1012L50.3689 68.1147L50.5772 68.1513L51.3339 68.2842C51.9694 68.3953 52.8418 68.5444 53.7917 68.699C55.6616 69.0026 57.9154 69.3388 59.1946 69.4161C60.0793 69.4703 61.1081 69.1992 62.0649 68.8806C63.0624 68.5485 64.1907 68.089 65.3257 67.6254C67.6624 66.6711 70.0427 65.6991 72.0419 65.3697C73.7703 65.0851 74.3868 65.714 74.6073 66.1438C74.9244 66.7605 74.7529 67.4451 74.5093 67.6918C74.4508 67.7528 74.2371 67.925 73.7907 68.2137C73.3743 68.4807 72.8367 68.802 72.2052 69.1585C70.7385 69.9763 69.2538 70.7619 67.7522 71.5145C64.4969 73.1588 61.2578 74.6675 60.3596 74.9955C59.6329 75.2612 58.7333 75.3249 57.5642 75.2653C56.8755 75.225 56.188 75.1667 55.5024 75.0904C54.8699 75.0241 54.2366 74.9662 53.6025 74.9169C51.2998 74.7434 49.5497 74.189 47.6729 73.5953L47.5028 73.541C45.5594 72.927 43.4799 72.2885 40.7294 72.1787C40.1102 72.1543 39.0078 72.1922 38.0266 72.2383V62.6125C39.9401 61.9307 42.7722 60.9072 43.6337 60.5155ZM35.3047 60.3826H31.2219V75.287H35.3047V60.3826Z" fill="white"/>
<path fill-rule="evenodd" clip-rule="evenodd" d="M60.355 28.7538L60.37 28.7511L60.4666 28.7037L60.4938 28.6982L60.5129 28.7037L60.6095 28.7511C60.624 28.7556 60.6349 28.7534 60.6421 28.7443L60.6476 28.7308L60.6707 28.1506L60.6639 28.1235L60.6503 28.1059L60.5088 28.0055L60.4884 28.0001L60.472 28.0055L60.3305 28.1059L60.3142 28.1275L60.3087 28.1506L60.3319 28.7294C60.3355 28.7439 60.3432 28.752 60.355 28.7538ZM59.9943 28.907L60.012 28.9043L60.2638 28.7782L60.2774 28.7647L60.2815 28.7497L60.257 28.1669L60.2502 28.1506L60.2393 28.1411L59.9658 28.015C59.9485 28.0105 59.9354 28.0141 59.9263 28.0259L59.9208 28.0449L59.9671 28.8772C59.9717 28.8934 59.9807 28.9034 59.9943 28.907ZM60.9674 28.9043C60.9734 28.9079 60.9806 28.9091 60.9874 28.9076C60.9943 28.906 61.0003 28.902 61.0042 28.8961L61.0123 28.8772L61.0586 28.0449C61.0577 28.0286 61.05 28.0177 61.0355 28.0123L61.015 28.015L60.7415 28.1411L60.7279 28.1519L60.7224 28.1669L60.6993 28.7497L60.7034 28.766L60.717 28.7796L60.9674 28.9043Z" fill="white"/>
<path fill-rule="evenodd" clip-rule="evenodd" d="M61.164 34.5259C60.8307 34.5258 60.509 34.4039 60.2599 34.1833C60.0108 33.9627 59.8516 33.6586 59.8126 33.3289L59.8031 33.1703V31.8148C59.8035 31.4692 59.9363 31.1369 60.1744 30.8857C60.4125 30.6345 60.738 30.4833 61.0843 30.463C61.4306 30.4428 61.7715 30.555 62.0375 30.7768C62.3035 30.9985 62.4745 31.3131 62.5155 31.6561L62.525 31.8148V33.1703C62.525 33.5298 62.3816 33.8746 62.1264 34.1288C61.8711 34.383 61.525 34.5259 61.164 34.5259ZM67.9007 37.3048C67.6456 37.0505 67.5022 36.7058 67.5022 36.3464C67.5022 35.9869 67.6456 35.6422 67.9007 35.388L68.8629 34.4296C68.9884 34.3001 69.1386 34.1969 69.3046 34.1258C69.4707 34.0548 69.6493 34.0174 69.83 34.0158C70.0107 34.0143 70.1899 34.0486 70.3571 34.1167C70.5244 34.1849 70.6763 34.2855 70.8041 34.4128C70.9319 34.5401 71.0329 34.6914 71.1014 34.858C71.1698 35.0246 71.2042 35.2031 71.2027 35.3831C71.2011 35.5631 71.1636 35.741 71.0922 35.9064C71.0209 36.0717 70.9172 36.2213 70.7872 36.3464L69.8251 37.3048C69.5698 37.5589 69.2237 37.7016 68.8629 37.7016C68.502 37.7016 68.1559 37.5589 67.9007 37.3048ZM52.503 37.3048L51.5408 36.3464C51.2929 36.0907 51.1558 35.7483 51.1589 35.3929C51.162 35.0375 51.3051 34.6975 51.5574 34.4461C51.8097 34.1948 52.1511 34.0522 52.5079 34.0492C52.8647 34.0461 53.2085 34.1827 53.4652 34.4296L54.4274 35.388C54.6753 35.6437 54.8125 35.9861 54.8094 36.3415C54.8063 36.6969 54.6631 37.0369 54.4108 37.2882C54.1585 37.5396 53.8171 37.6821 53.4603 37.6852C53.1035 37.6883 52.7597 37.5517 52.503 37.3048ZM60.3243 57.5703C59.6608 57.5705 59.0201 57.3292 58.5226 56.8918C58.0251 56.4545 57.7052 55.8512 57.6229 55.1954L57.1057 51.0745C55.5438 50.1834 54.3212 48.8033 53.6281 47.1488C52.935 45.4942 52.8101 43.6579 53.273 41.9253C53.7358 40.1928 54.7605 38.6611 56.1875 37.5685C57.6146 36.4758 59.3641 35.8834 61.164 35.8834C62.964 35.8834 64.7135 36.4758 66.1406 37.5685C67.5676 38.6611 68.5922 40.1928 69.0551 41.9253C69.5179 43.6579 69.3931 45.4942 68.7 47.1488C68.0068 48.8033 66.7843 50.1834 65.2224 51.0745L64.7052 55.1954C64.6229 55.8512 64.303 56.4545 63.8055 56.8918C63.308 57.3292 62.6673 57.5705 62.0037 57.5703H60.3243ZM61.164 49.437C62.6078 49.437 63.9925 48.8657 65.0134 47.8488C66.0343 46.832 66.6078 45.4528 66.6078 44.0148C66.6078 42.5767 66.0343 41.1975 65.0134 40.1807C63.9925 39.1638 62.6078 38.5925 61.164 38.5925C59.7203 38.5925 58.3356 39.1638 57.3147 40.1807C56.2938 41.1975 55.7203 42.5767 55.7203 44.0148C55.7203 45.4528 56.2938 46.832 57.3147 47.8488C58.3356 48.8657 59.7203 49.437 61.164 49.437ZM72.0516 45.3703C71.6906 45.3703 71.3445 45.2275 71.0892 44.9733C70.834 44.7191 70.6906 44.3743 70.6906 44.0148C70.6906 43.6552 70.834 43.3104 71.0892 43.0562C71.3445 42.802 71.6906 42.6592 72.0516 42.6592H73.4125C73.7734 42.6592 74.1196 42.802 74.3748 43.0562C74.6301 43.3104 74.7734 43.6552 74.7734 44.0148C74.7734 44.3743 74.6301 44.7191 74.3748 44.9733C74.1196 45.2275 73.7734 45.3703 73.4125 45.3703H72.0516ZM48.9156 45.3703C48.5546 45.3703 48.2085 45.2275 47.9532 44.9733C47.698 44.7191 47.5546 44.3743 47.5546 44.0148C47.5546 43.6552 47.698 43.3104 47.9532 43.0562C48.2085 42.802 48.5546 42.6592 48.9156 42.6592H50.2765C50.6375 42.6592 50.9836 42.802 51.2388 43.0562C51.4941 43.3104 51.6375 43.6552 51.6375 44.0148C51.6375 44.3743 51.4941 44.7191 51.2388 44.9733C50.9836 45.2275 50.6375 45.3703 50.2765 45.3703H48.9156ZM51.5408 53.5985C51.2857 53.3443 51.1424 52.9996 51.1424 52.6402C51.1424 52.2807 51.2857 51.936 51.5408 51.6818L52.503 50.7234C52.6286 50.5939 52.7787 50.4907 52.9448 50.4196C53.1108 50.3486 53.2894 50.3112 53.4701 50.3096C53.6508 50.3081 53.83 50.3423 53.9973 50.4105C54.1645 50.4787 54.3165 50.5793 54.4443 50.7066C54.572 50.8339 54.6731 50.9852 54.7415 51.1518C54.8099 51.3184 54.8444 51.4969 54.8428 51.6769C54.8412 51.8569 54.8037 52.0348 54.7324 52.2001C54.661 52.3655 54.5574 52.5151 54.4274 52.6402L53.4652 53.5985C53.21 53.8527 52.8639 53.9954 52.503 53.9954C52.1421 53.9954 51.796 53.8527 51.5408 53.5985ZM68.8629 53.5985L67.9007 52.6402C67.6589 52.3833 67.5269 52.0429 67.5327 51.6909C67.5384 51.3389 67.6814 51.0029 67.9314 50.754C68.1815 50.5052 68.5189 50.363 68.8723 50.3575C69.2257 50.352 69.5674 50.4838 69.8251 50.7248L70.7872 51.6831C71.029 51.9399 71.161 52.2804 71.1553 52.6324C71.1495 52.9844 71.0065 53.3204 70.7565 53.5692C70.5065 53.8181 70.1691 53.9603 69.8156 53.9658C69.4622 53.9712 69.1205 53.8395 68.8629 53.5985ZM60.3243 54.8592H62.0037L62.344 52.1481H59.9841L60.3243 54.8592Z" fill="white"/>
</svg>
