<svg width="106" height="105" viewBox="0 0 106 105" fill="none" xmlns="http://www.w3.org/2000/svg">
<rect x="0.5" width="105" height="105" rx="52.5" fill="#8099B2"/>
<path d="M55.1029 80.3974L55.0732 80.4028L54.8815 80.4973L54.8275 80.5081L54.7897 80.4973L54.598 80.4028C54.5692 80.3938 54.5476 80.3983 54.5332 80.4163L54.5224 80.4433L54.4765 81.5989L54.49 81.6529L54.517 81.688L54.7978 81.8878L54.8383 81.8986L54.8707 81.8878L55.1515 81.688L55.1839 81.6448L55.1947 81.5989L55.1488 80.446C55.1416 80.4172 55.1263 80.401 55.1029 80.3974ZM55.8184 80.0923L55.7833 80.0977L55.2838 80.3488L55.2568 80.3758L55.2487 80.4055L55.2973 81.5665L55.3108 81.5989L55.3324 81.6178L55.8751 81.8689C55.9093 81.8779 55.9354 81.8707 55.9534 81.8473L55.9642 81.8095L55.8724 80.1517C55.8634 80.1193 55.8454 80.0995 55.8184 80.0923ZM53.8879 80.0977C53.876 80.0904 53.8618 80.0881 53.8482 80.0911C53.8346 80.0941 53.8228 80.1023 53.815 80.1139L53.7988 80.1517L53.707 81.8095C53.7088 81.8419 53.7241 81.8635 53.7529 81.8743L53.7934 81.8689L54.3361 81.6178L54.3631 81.5962L54.3739 81.5665L54.4198 80.4055L54.4117 80.3731L54.3847 80.3461L53.8879 80.0977Z" fill="white"/>
<path d="M38.1154 53.0024V42.887C38.1454 40.8987 38.5675 38.9358 39.3575 37.1109C40.1474 35.286 41.2897 33.6348 42.7188 32.2521C44.148 30.8694 45.836 29.7823 47.686 29.053C49.536 28.3238 51.5118 27.9668 53.5 28.0024C55.4882 27.9668 57.464 28.3238 59.314 29.053C61.164 29.7823 62.852 30.8694 64.2812 32.2521C65.7103 33.6348 66.8526 35.286 67.6425 37.1109C68.4325 38.9358 68.8546 40.8987 68.8846 42.887V53.0024M61.1923 73.1947C63.2324 73.1947 65.189 72.3843 66.6316 70.9417C68.0742 69.4991 68.8846 67.5426 68.8846 65.5024V56.8486M61.1923 73.1947C61.1923 74.4698 60.6858 75.6927 59.7842 76.5943C58.8825 77.4959 57.6597 78.0024 56.3846 78.0024H50.6154C49.3403 78.0024 48.1174 77.4959 47.2158 76.5943C46.3142 75.6927 45.8077 74.4698 45.8077 73.1947C45.8077 71.9197 46.3142 70.6968 47.2158 69.7952C48.1174 68.8936 49.3403 68.387 50.6154 68.387H56.3846C57.6597 68.387 58.8825 68.8936 59.7842 69.7952C60.6858 70.6968 61.1923 71.9197 61.1923 73.1947ZM32.3462 47.2332H36.1923C36.7023 47.2332 37.1915 47.4358 37.5521 47.7965C37.9128 48.1571 38.1154 48.6462 38.1154 49.1563V60.6947C38.1154 61.2048 37.9128 61.6939 37.5521 62.0546C37.1915 62.4152 36.7023 62.6178 36.1923 62.6178H32.3462C31.3261 62.6178 30.3478 62.2126 29.6265 61.4913C28.9052 60.77 28.5 59.7917 28.5 58.7717V51.0794C28.5 50.0593 28.9052 49.081 29.6265 48.3597C30.3478 47.6384 31.3261 47.2332 32.3462 47.2332ZM74.6538 62.6178H70.8077C70.2977 62.6178 69.8085 62.4152 69.4479 62.0546C69.0872 61.6939 68.8846 61.2048 68.8846 60.6947V49.1563C68.8846 48.6462 69.0872 48.1571 69.4479 47.7965C69.8085 47.4358 70.2977 47.2332 70.8077 47.2332H74.6538C75.6739 47.2332 76.6522 47.6384 77.3735 48.3597C78.0948 49.081 78.5 50.0593 78.5 51.0794V58.7717C78.5 59.7917 78.0948 60.77 77.3735 61.4913C76.6522 62.2126 75.6739 62.6178 74.6538 62.6178Z" stroke="white" stroke-width="3.84615" stroke-linecap="round" stroke-linejoin="round"/>
</svg>
