<svg width="106" height="105" viewBox="0 0 106 105" fill="none" xmlns="http://www.w3.org/2000/svg">
<rect x="0.5" width="105" height="105" rx="52.5" fill="#8099B2"/>
<path d="M49.4167 54.053L44.7762 49.428L42.25 51.9459L49.4167 59.0887L63.75 44.803L61.2237 42.2852L49.4167 54.053Z" fill="white"/>
<path d="M53 78L41.9347 72.1196C38.7799 70.4473 36.1417 67.9501 34.3033 64.8962C32.4649 61.8424 31.4958 58.3471 31.5 54.7857V31.5714C31.5 30.6242 31.8775 29.7158 32.5495 29.046C33.2216 28.3763 34.133 28 35.0833 28H70.9167C71.867 28 72.7784 28.3763 73.4505 29.046C74.1225 29.7158 74.5 30.6242 74.5 31.5714V54.7857C74.5042 58.3471 73.5351 61.8424 71.6967 64.8962C69.8583 67.9501 67.2201 70.4473 64.0653 72.1196L53 78ZM35.0833 31.5714V54.7857C35.0813 57.6994 35.875 60.5588 37.3793 63.0572C38.8836 65.5556 41.0418 67.5988 43.6224 68.9679L53 73.9518L62.3776 68.9696C64.9585 67.6005 67.1168 65.5569 68.6211 63.0582C70.1254 60.5595 70.919 57.6998 70.9167 54.7857V31.5714H35.0833Z" fill="white"/>
</svg>
