<!-- <svg xmlns="http://www.w3.org/2000/svg" width="1em" height="1em" viewBox="0 0 24 24"><path fill="currentColor" d="M12.89 11.1c-1.78-.59-2.64-.96-2.64-1.9c0-1.02 1.11-1.39 1.81-1.39c1.31 0 1.79.99 1.9 1.34l1.58-.67c-.15-.45-.82-1.92-2.54-2.24V5h-2v1.26c-2.48.56-2.49 2.86-2.49 2.96c0 2.27 2.25 2.91 3.35 3.31c1.58.56 2.28 1.07 2.28 2.03c0 1.13-1.05 1.61-1.98 1.61c-1.82 0-2.34-1.87-2.4-2.09l-1.66.67c.63 2.19 2.28 2.78 2.9 2.96V19h2v-1.24c.4-.09 2.9-.59 2.9-3.22c0-1.39-.61-2.61-3.01-3.44M3 21H1v-6h6v2H4.52c1.61 2.41 4.36 4 7.48 4a9 9 0 0 0 9-9h2c0 6.08-4.92 11-11 11c-3.72 0-7.01-1.85-9-4.67zm-2-9C1 5.92 5.92 1 12 1c3.72 0 7.01 1.85 9 4.67V3h2v6h-6V7h2.48C17.87 4.59 15.12 3 12 3a9 9 0 0 0-9 9z"/></svg> -->
<svg width="40" height="40" viewBox="0 0 40 40" fill="none" xmlns="http://www.w3.org/2000/svg">
<path d="M28.3421 26.6717H31.6755V6.67171H15.0088V10.005H28.3421V26.6717ZM28.3421 30.005V35.0034C28.3421 35.925 27.5921 36.67 26.6638 36.67H6.68712C6.46727 36.6716 6.24929 36.6296 6.04573 36.5465C5.84218 36.4635 5.65706 36.341 5.50106 36.186C5.34506 36.0311 5.22125 35.8469 5.13676 35.6439C5.05228 35.4409 5.00878 35.2232 5.00879 35.0034L5.01212 11.6734C5.01212 10.7517 5.76212 10.005 6.69046 10.005H11.6738V5.00505C11.6738 4.56302 11.8494 4.13909 12.1619 3.82653C12.4745 3.51397 12.8984 3.33838 13.3405 3.33838H33.3405C33.7825 3.33838 34.2064 3.51397 34.519 3.82653C34.8315 4.13909 35.0071 4.56302 35.0071 5.00505V28.3384C35.0071 28.7804 34.8315 29.2043 34.519 29.5169C34.2064 29.8294 33.7825 30.005 33.3405 30.005H28.3421ZM11.6755 26.6717V30.005H15.0088V31.6717H18.3421V30.005H19.1755C20.2805 30.005 21.3403 29.5661 22.1217 28.7847C22.9031 28.0033 23.3421 26.9434 23.3421 25.8384C23.3421 24.7333 22.9031 23.6735 22.1217 22.8921C21.3403 22.1107 20.2805 21.6717 19.1755 21.6717H14.1755C13.9544 21.6717 13.7425 21.5839 13.5862 21.4276C13.4299 21.2714 13.3421 21.0594 13.3421 20.8384C13.3421 20.6174 13.4299 20.4054 13.5862 20.2491C13.7425 20.0928 13.9544 20.005 14.1755 20.005H21.6755V16.6717H18.3421V15.005H15.0088V16.6717H14.1755C13.0704 16.6717 12.0106 17.1107 11.2292 17.8921C10.4478 18.6735 10.0088 19.7333 10.0088 20.8384C10.0088 21.9434 10.4478 23.0033 11.2292 23.7847C12.0106 24.5661 13.0704 25.005 14.1755 25.005H19.1755C19.3965 25.005 19.6084 25.0928 19.7647 25.2491C19.921 25.4054 20.0088 25.6174 20.0088 25.8384C20.0088 26.0594 19.921 26.2714 19.7647 26.4276C19.6084 26.5839 19.3965 26.6717 19.1755 26.6717H11.6755Z" fill="white"/>
</svg>
