<svg width="106" height="105" viewBox="0 0 106 105" fill="none" xmlns="http://www.w3.org/2000/svg">
<rect x="1.75" y="1.25" width="102.5" height="102.5" rx="51.25" fill="#1D374E"/>
<rect x="1.75" y="1.25" width="102.5" height="102.5" rx="51.25" stroke="white" stroke-width="2.5"/>
<path d="M55.1029 80.3974L55.0732 80.4028L54.8815 80.4973L54.8275 80.5081L54.7897 80.4973L54.598 80.4028C54.5692 80.3938 54.5476 80.3983 54.5332 80.4163L54.5224 80.4433L54.4765 81.5989L54.49 81.6529L54.517 81.688L54.7978 81.8878L54.8383 81.8986L54.8707 81.8878L55.1515 81.688L55.1839 81.6448L55.1947 81.5989L55.1488 80.446C55.1416 80.4172 55.1263 80.401 55.1029 80.3974ZM55.8184 80.0923L55.7833 80.0977L55.2838 80.3488L55.2568 80.3758L55.2487 80.4055L55.2973 81.5665L55.3108 81.5989L55.3324 81.6178L55.8751 81.8689C55.9093 81.8779 55.9354 81.8707 55.9534 81.8473L55.9642 81.8095L55.8724 80.1517C55.8634 80.1193 55.8454 80.0995 55.8184 80.0923ZM53.8879 80.0977C53.876 80.0904 53.8618 80.0881 53.8482 80.0911C53.8346 80.0941 53.8228 80.1023 53.815 80.1139L53.7988 80.1517L53.707 81.8095C53.7088 81.8419 53.7241 81.8635 53.7529 81.8743L53.7934 81.8689L54.3361 81.6178L54.3631 81.5962L54.3739 81.5665L54.4198 80.4055L54.4117 80.3731L54.3847 80.3461L53.8879 80.0977Z" fill="white"/>
<path d="M53.5 23C55.9192 23 58.2628 23.3186 60.493 23.9153L54.7528 29.6528C54.3173 30.09 53.9332 30.5756 53.608 31.1H53.5C49.7619 31.1 46.1078 32.2085 42.9997 34.2852C39.8916 36.362 37.4692 39.3138 36.0387 42.7673C34.6082 46.2208 34.2339 50.021 34.9632 53.6872C35.6924 57.3534 37.4925 60.7211 40.1357 63.3643C42.7789 66.0075 46.1466 67.8076 49.8128 68.5368C53.479 69.2661 57.2792 68.8918 60.7327 67.4613C64.1862 66.0308 67.138 63.6084 69.2148 60.5003C71.2915 57.3922 72.4 53.7381 72.4 50V49.892C72.922 49.568 73.4035 49.1855 73.8445 48.7445L79.5847 43.007C80.1814 45.2372 80.5 47.5808 80.5 50C80.5 64.9121 68.4121 77 53.5 77C38.5879 77 26.5 64.9121 26.5 50C26.5 35.0879 38.5879 23 53.5 23ZM52.3822 36.5459C52.3822 38.8436 52.2688 41.1737 52.393 43.4687L50.935 44.9267C50.4335 45.4282 50.0356 46.0237 49.7642 46.6789C49.4928 47.3342 49.3531 48.0366 49.3531 48.7458C49.3531 49.4551 49.4928 50.1575 49.7642 50.8128C50.0356 51.4681 50.4335 52.0635 50.935 52.565C51.4365 53.0665 52.032 53.4644 52.6872 53.7358C53.3425 54.0072 54.0449 54.1469 54.7542 54.1469C55.4634 54.1469 56.1658 54.0072 56.8211 53.7358C57.4763 53.4644 58.0718 53.0665 58.5733 52.565L60.0313 51.107C62.3263 51.2312 64.6537 51.1178 66.9541 51.1178C66.7408 53.6837 65.7982 56.1351 64.2374 58.1829C62.6767 60.2307 60.5628 61.7895 58.1453 62.6753C55.7277 63.5612 53.1072 63.7372 50.5928 63.1827C48.0785 62.6281 45.7752 61.3661 43.9546 59.5454C42.1339 57.7248 40.8719 55.4215 40.3173 52.9072C39.7628 50.3928 39.9388 47.7723 40.8247 45.3547C41.7105 42.9372 43.2693 40.8233 45.3171 39.2626C47.3649 37.7018 49.8163 36.7592 52.3822 36.5459ZM71.0608 23.3429C71.5536 23.5472 71.9749 23.893 72.2714 24.3365C72.5679 24.7801 72.7263 25.3015 72.7267 25.835V30.776H77.665C78.1989 30.7761 78.7208 30.9345 79.1647 31.2312C79.6086 31.5279 79.9546 31.9495 80.1589 32.4428C80.3632 32.9361 80.4167 33.4789 80.3126 34.0026C80.2084 34.5263 79.9514 35.0073 79.5739 35.3849L70.024 44.924C69.5178 45.4304 68.8311 45.7149 68.1151 45.7151H61.6L56.6644 50.6534C56.1578 51.16 55.4706 51.4447 54.7542 51.4447C54.0377 51.4447 53.3505 51.16 52.8439 50.6534C52.3373 50.1468 52.0526 49.4596 52.0526 48.7432C52.0526 48.0267 52.3373 47.3395 52.8439 46.8329L57.7822 41.9V35.3822C57.7819 35.0272 57.8517 34.6756 57.9874 34.3476C58.1231 34.0196 58.3222 33.7216 58.5733 33.4706L68.1178 23.9261C68.4954 23.5483 68.9765 23.2909 69.5004 23.1867C70.0243 23.0824 70.5673 23.1358 71.0608 23.3402" fill="white"/>
</svg>
