<svg width="77" height="77" viewBox="0 0 77 77" fill="none" xmlns="http://www.w3.org/2000/svg">
<rect width="77" height="77" rx="38.5" fill="#003366"/>
<path d="M33.96 27H44.04C47.88 27 51 30.12 51 33.96V44.04C51 45.8859 50.2667 47.6562 48.9615 48.9615C47.6562 50.2667 45.8859 51 44.04 51H33.96C30.12 51 27 47.88 27 44.04V33.96C27 32.1141 27.7333 30.3438 29.0385 29.0385C30.3438 27.7333 32.1141 27 33.96 27ZM33.72 29.4C32.5743 29.4 31.4755 29.8551 30.6653 30.6653C29.8551 31.4755 29.4 32.5743 29.4 33.72V44.28C29.4 46.668 31.332 48.6 33.72 48.6H44.28C45.4257 48.6 46.5245 48.1449 47.3347 47.3347C48.1449 46.5245 48.6 45.4257 48.6 44.28V33.72C48.6 31.332 46.668 29.4 44.28 29.4H33.72ZM45.3 31.2C45.6978 31.2 46.0794 31.358 46.3607 31.6393C46.642 31.9206 46.8 32.3022 46.8 32.7C46.8 33.0978 46.642 33.4794 46.3607 33.7607C46.0794 34.042 45.6978 34.2 45.3 34.2C44.9022 34.2 44.5206 34.042 44.2393 33.7607C43.958 33.4794 43.8 33.0978 43.8 32.7C43.8 32.3022 43.958 31.9206 44.2393 31.6393C44.5206 31.358 44.9022 31.2 45.3 31.2ZM39 33C40.5913 33 42.1174 33.6321 43.2426 34.7574C44.3679 35.8826 45 37.4087 45 39C45 40.5913 44.3679 42.1174 43.2426 43.2426C42.1174 44.3679 40.5913 45 39 45C37.4087 45 35.8826 44.3679 34.7574 43.2426C33.6321 42.1174 33 40.5913 33 39C33 37.4087 33.6321 35.8826 34.7574 34.7574C35.8826 33.6321 37.4087 33 39 33ZM39 35.4C38.0452 35.4 37.1295 35.7793 36.4544 36.4544C35.7793 37.1295 35.4 38.0452 35.4 39C35.4 39.9548 35.7793 40.8705 36.4544 41.5456C37.1295 42.2207 38.0452 42.6 39 42.6C39.9548 42.6 40.8705 42.2207 41.5456 41.5456C42.2207 40.8705 42.6 39.9548 42.6 39C42.6 38.0452 42.2207 37.1295 41.5456 36.4544C40.8705 35.7793 39.9548 35.4 39 35.4Z" fill="white"/>
</svg>
