<svg width="77" height="77" viewBox="0 0 77 77" fill="none" xmlns="http://www.w3.org/2000/svg">
<rect width="77" height="77" rx="38.5" fill="#003366"/>
<path d="M47 27C48.0609 27 49.0783 27.4214 49.8284 28.1716C50.5786 28.9217 51 29.9391 51 31V47C51 48.0609 50.5786 49.0783 49.8284 49.8284C49.0783 50.5786 48.0609 51 47 51H31C29.9391 51 28.9217 50.5786 28.1716 49.8284C27.4214 49.0783 27 48.0609 27 47V31C27 29.9391 27.4214 28.9217 28.1716 28.1716C28.9217 27.4214 29.9391 27 31 27H47ZM47 29.6667H31C30.6464 29.6667 30.3072 29.8071 30.0572 30.0572C29.8071 30.3072 29.6667 30.6464 29.6667 31V47C29.6667 47.3536 29.8071 47.6928 30.0572 47.9428C30.3072 48.1929 30.6464 48.3333 31 48.3333H47C47.3536 48.3333 47.6928 48.1929 47.9428 47.9428C48.1929 47.6928 48.3333 47.3536 48.3333 47V31C48.3333 30.6464 48.1929 30.3072 47.9428 30.0572C47.6928 29.8071 47.3536 29.6667 47 29.6667ZM33.6667 36.3333C33.9932 36.3334 34.3085 36.4533 34.5525 36.6703C34.7965 36.8873 34.9525 37.1863 34.9907 37.5107L35 37.6667V44.3333C34.9996 44.6732 34.8695 45 34.6362 45.2472C34.4029 45.4943 34.0841 45.643 33.7448 45.6629C33.4056 45.6828 33.0715 45.5724 32.8109 45.3543C32.5503 45.1362 32.3828 44.8268 32.3427 44.4893L32.3333 44.3333V37.6667C32.3333 37.313 32.4738 36.9739 32.7239 36.7239C32.9739 36.4738 33.313 36.3333 33.6667 36.3333ZM37.6667 35C37.9789 35 38.2813 35.1095 38.5211 35.3096C38.7608 35.5096 38.9228 35.7875 38.9787 36.0947C39.2472 35.9396 39.5246 35.8002 39.8093 35.6773C40.6987 35.2973 42.0307 35.088 43.2333 35.4653C43.864 35.6653 44.4973 36.0387 44.9667 36.6747C45.3867 37.2413 45.6133 37.9307 45.6587 38.7053L45.6667 39V44.3333C45.6663 44.6732 45.5362 45 45.3029 45.2472C45.0696 45.4943 44.7507 45.643 44.4115 45.6629C44.0722 45.6828 43.7382 45.5724 43.4776 45.3543C43.217 45.1362 43.0495 44.8268 43.0093 44.4893L43 44.3333V39C43 38.56 42.8933 38.3547 42.824 38.26C42.7244 38.1363 42.5873 38.0484 42.4333 38.0093C41.9693 37.8627 41.3013 37.94 40.8573 38.1293C40.1907 38.4147 39.58 38.8627 39.164 39.2773L39 39.4533V44.3333C38.9996 44.6732 38.8695 45 38.6362 45.2472C38.4029 45.4943 38.0841 45.643 37.7448 45.6629C37.4056 45.6828 37.0715 45.5724 36.8109 45.3543C36.5503 45.1362 36.3828 44.8268 36.3427 44.4893L36.3333 44.3333V36.3333C36.3333 35.9797 36.4738 35.6406 36.7239 35.3905C36.9739 35.1405 37.313 35 37.6667 35ZM33.6667 32.3333C34.0203 32.3333 34.3594 32.4738 34.6095 32.7239C34.8595 32.9739 35 33.313 35 33.6667C35 34.0203 34.8595 34.3594 34.6095 34.6095C34.3594 34.8595 34.0203 35 33.6667 35C33.313 35 32.9739 34.8595 32.7239 34.6095C32.4738 34.3594 32.3333 34.0203 32.3333 33.6667C32.3333 33.313 32.4738 32.9739 32.7239 32.7239C32.9739 32.4738 33.313 32.3333 33.6667 32.3333Z" fill="white"/>
</svg>
