<!-- <svg xmlns="http://www.w3.org/2000/svg" width="1em" height="1em" viewBox="0 0 32 32"><path fill="currentColor" d="m15 22l-1.41 1.41L16.17 26H4V8H2v18c0 1.103.897 2 2 2h12.17l-2.58 2.59L15 32l5-5z"/><circle cx="11" cy="16" r="1" fill="currentColor"/><path fill="currentColor" d="M24 20H8c-1.103 0-2-.897-2-2v-4c0-1.103.897-2 2-2h16c1.103 0 2 .897 2 2v4c0 1.103-.897 2-2 2M8 14v4h16v-4z"/><path fill="currentColor" d="M28 4H15.83l2.58-2.59L17 0l-5 5l5 5l1.41-1.41L15.83 6H28v18h2V6c0-1.102-.897-2-2-2"/></svg> -->
<svg width="41" height="40" viewBox="0 0 41 40" fill="none" xmlns="http://www.w3.org/2000/svg">
<path d="M19.25 27.5L17.4875 29.2625L20.7125 32.5H5.5V10H3V32.5C3 33.8787 4.12125 35 5.5 35H20.7125L17.4875 38.2375L19.25 40L25.5 33.75L19.25 27.5Z" fill="white"/>
<path d="M14.25 21.25C14.9404 21.25 15.5 20.6904 15.5 20C15.5 19.3096 14.9404 18.75 14.25 18.75C13.5596 18.75 13 19.3096 13 20C13 20.6904 13.5596 21.25 14.25 21.25Z" fill="white"/>
<path d="M30.5 25H10.5C9.12125 25 8 23.8787 8 22.5V17.5C8 16.1212 9.12125 15 10.5 15H30.5C31.8787 15 33 16.1212 33 17.5V22.5C33 23.8787 31.8787 25 30.5 25ZM10.5 17.5V22.5H30.5V17.5H10.5Z" fill="white"/>
<path d="M35.5 5H20.2875L23.5125 1.7625L21.75 0L15.5 6.25L21.75 12.5L23.5125 10.7375L20.2875 7.5H35.5V30H38V7.5C38 6.1225 36.8787 5 35.5 5Z" fill="white"/>
</svg>
