<svg width="106" height="105" viewBox="0 0 106 105" fill="none" xmlns="http://www.w3.org/2000/svg">
<rect x="1.75" y="1.25" width="102.5" height="102.5" rx="51.25" fill="#E43434"/>
<rect x="1.75" y="1.25" width="102.5" height="102.5" rx="51.25" stroke="white" stroke-width="2.5"/>
<path d="M45.8364 74.753C45.8364 72.6824 45.8364 71.65 45.7246 70.9627C45.3748 68.75 45.3146 68.6079 43.9186 66.868C43.4828 66.3257 41.8775 64.8728 38.6668 61.9612C35.4214 59.0248 33.1338 55.1607 32.1067 50.8803C31.0796 46.5999 31.3615 42.1049 32.9149 37.9901C34.4683 33.8752 37.2201 30.3345 40.8062 27.8364C44.3923 25.3382 48.6437 24.0004 52.9979 24C57.352 23.9996 61.6036 25.3365 65.1902 27.8339C68.7768 30.3313 71.5294 33.8715 73.0836 37.986C74.6378 42.1006 74.9205 46.5955 73.8943 50.8761C72.868 55.1567 70.5812 59.0212 67.3364 61.9583C64.1228 64.8699 62.5175 66.3257 62.0846 66.8651C60.6886 68.605 60.6284 68.7472 60.2758 70.9598C60.1668 71.6471 60.1668 72.6824 60.1668 74.7501H45.8335C45.8335 77.4616 45.8335 78.8158 46.4097 79.825C46.7871 80.4862 47.3299 81.0353 47.9835 81.4171C48.9811 82 50.3198 82 53.0002 82C55.6805 82 57.0192 82 58.0197 81.42C58.6733 81.0382 59.2161 80.4891 59.5935 79.8279C60.1697 78.8187 60.1697 77.4644 60.1697 74.753" stroke="white" stroke-width="4.38222"/>
<path d="M55.2526 42.8516L49.1094 51.5515H57.7094L51.5661 60.2514" stroke="white" stroke-width="4.38222" stroke-linecap="round" stroke-linejoin="round"/>
</svg>
