<!-- <svg xmlns="http://www.w3.org/2000/svg" width="1em" height="1em" viewBox="0 0 24 24"><path fill="currentColor" fill-rule="evenodd" d="M7.245 2h9.51c1.159 0 1.738 0 2.206.163a3.05 3.05 0 0 1 1.881 1.936C21 4.581 21 5.177 21 6.37v14.004c0 .858-.985 1.314-1.608.744a.946.946 0 0 0-1.284 0l-.483.442a1.657 1.657 0 0 1-2.25 0a1.657 1.657 0 0 0-2.25 0a1.657 1.657 0 0 1-2.25 0a1.657 1.657 0 0 0-2.25 0a1.657 1.657 0 0 1-2.25 0l-.483-.442a.946.946 0 0 0-1.284 0c-.623.57-1.608.114-1.608-.744V6.37c0-1.193 0-1.79.158-2.27c.3-.913.995-1.629 1.881-1.937C5.507 2 6.086 2 7.245 2m7.815 6.5a.75.75 0 0 0-1.12-1l-3.011 3.374l-.87-.974a.75.75 0 0 0-1.118 1l1.428 1.6a.75.75 0 0 0 1.119 0zM7.5 14.75a.75.75 0 0 0 0 1.5h9a.75.75 0 0 0 0-1.5z" clip-rule="evenodd"/></svg> -->
<svg width="40" height="40" viewBox="0 0 40 40" fill="none" xmlns="http://www.w3.org/2000/svg">
<path fill-rule="evenodd" clip-rule="evenodd" d="M12.075 3.3335H27.925C29.8567 3.3335 30.8217 3.3335 31.6017 3.60516C32.3368 3.86637 33.0019 4.29327 33.5456 4.8528C34.0892 5.41234 34.4967 6.08949 34.7367 6.83183C35 7.63516 35 8.6285 35 10.6168V33.9568C35 35.3868 33.3583 36.1468 32.32 35.1968C32.0287 34.9277 31.6466 34.7782 31.25 34.7782C30.8534 34.7782 30.4713 34.9277 30.18 35.1968L29.375 35.9335C28.8647 36.4054 28.1951 36.6676 27.5 36.6676C26.8049 36.6676 26.1353 36.4054 25.625 35.9335C25.1147 35.4616 24.4451 35.1994 23.75 35.1994C23.0549 35.1994 22.3853 35.4616 21.875 35.9335C21.3647 36.4054 20.6951 36.6676 20 36.6676C19.3049 36.6676 18.6353 36.4054 18.125 35.9335C17.6147 35.4616 16.9451 35.1994 16.25 35.1994C15.5549 35.1994 14.8853 35.4616 14.375 35.9335C13.8647 36.4054 13.1951 36.6676 12.5 36.6676C11.8049 36.6676 11.1353 36.4054 10.625 35.9335L9.82 35.1968C9.52869 34.9277 9.14663 34.7782 8.75 34.7782C8.35337 34.7782 7.97131 34.9277 7.68 35.1968C6.64167 36.1468 5 35.3868 5 33.9568V10.6168C5 8.6285 5 7.6335 5.26333 6.8335C5.76333 5.31183 6.92167 4.1185 8.39833 3.60516C9.17833 3.3335 10.1433 3.3335 12.075 3.3335ZM25.1 14.1668C25.2094 14.0443 25.2937 13.9013 25.3479 13.7462C25.4021 13.5911 25.4252 13.4268 25.4159 13.2628C25.4066 13.0987 25.3651 12.9381 25.2937 12.7901C25.2224 12.6421 25.1226 12.5096 25 12.4002C24.8774 12.2907 24.7345 12.2065 24.5794 12.1523C24.4243 12.0981 24.26 12.075 24.096 12.0843C23.9319 12.0936 23.7713 12.1351 23.6233 12.2064C23.4753 12.2778 23.3428 12.3776 23.2333 12.5002L18.215 18.1235L16.765 16.5002C16.5434 16.2553 16.2339 16.1081 15.9041 16.0906C15.5743 16.0732 15.251 16.187 15.0048 16.4072C14.7587 16.6274 14.6096 16.9361 14.5903 17.2658C14.571 17.5954 14.6829 17.9194 14.9017 18.1668L17.2817 20.8335C17.3989 20.9648 17.5426 21.0699 17.7033 21.1419C17.864 21.2139 18.0381 21.2511 18.2142 21.2511C18.3902 21.2511 18.5643 21.2139 18.725 21.1419C18.8857 21.0699 19.0294 20.9648 19.1467 20.8335L25.1 14.1668ZM12.5 24.5835C12.1685 24.5835 11.8505 24.7152 11.6161 24.9496C11.3817 25.184 11.25 25.502 11.25 25.8335C11.25 26.165 11.3817 26.483 11.6161 26.7174C11.8505 26.9518 12.1685 27.0835 12.5 27.0835H27.5C27.8315 27.0835 28.1495 26.9518 28.3839 26.7174C28.6183 26.483 28.75 26.165 28.75 25.8335C28.75 25.502 28.6183 25.184 28.3839 24.9496C28.1495 24.7152 27.8315 24.5835 27.5 24.5835H12.5Z" fill="white"/>
</svg>
