<!-- <svg xmlns="http://www.w3.org/2000/svg" width="1em" height="1em" viewBox="0 0 256 256"><path fill="currentColor" d="m221.59 160.3l-47.24-21.17a14 14 0 0 0-13.28 1.22a5 5 0 0 0-.56.42l-24.69 21a1.88 1.88 0 0 1-1.68.06c-15.87-7.66-32.31-24-40-39.65a1.91 1.91 0 0 1 0-1.68l21.07-25a6 6 0 0 0 .42-.58a14 14 0 0 0 1.12-13.27L95.73 34.49a14 14 0 0 0-14.56-8.38A54.24 54.24 0 0 0 34 80c0 78.3 63.7 142 142 142a54.25 54.25 0 0 0 53.89-47.17a14 14 0 0 0-8.3-14.53M176 210c-71.68 0-130-58.32-130-130a42.23 42.23 0 0 1 36.67-42h.23a2 2 0 0 1 1.84 1.31l21.1 47.11a2 2 0 0 1 0 1.67l-21.11 25.06a5 5 0 0 0-.43.57a14 14 0 0 0-.91 13.73c8.87 18.16 27.17 36.32 45.53 45.19a14 14 0 0 0 13.77-1c.19-.13.38-.27.56-.42l24.68-21a1.92 1.92 0 0 1 1.6-.1l47.25 21.17a2 2 0 0 1 1.21 2A42.24 42.24 0 0 1 176 210"/>
</svg> -->

<svg width="40" height="40" viewBox="0 0 40 40" fill="none" xmlns="http://www.w3.org/2000/svg">
<path d="M6.74812 0.87763L9.82521 0.189622C12.7052 -0.454386 15.7851 0.587627 17.0194 2.62365L19.4765 6.6797C20.5479 8.44572 19.9536 10.5237 18.0079 11.8158L12.5995 15.4118C12.9328 17.5638 13.9651 19.6819 15.6965 21.7659C17.343 23.7816 19.5491 25.5463 22.185 26.9559L28.6877 25.4359C31.1506 24.8619 33.8334 25.5239 35.3448 27.0779L38.8647 30.698C40.6247 32.506 40.3075 34.998 38.1276 36.53L35.7905 38.1721C33.4648 39.8061 30.1449 40.4001 27.0706 39.7281C19.8174 38.1441 13.148 33.442 7.0624 25.6219C0.969177 17.7885 -1.18126 11.1431 0.611087 5.68569C1.36536 3.38966 3.70246 1.55964 6.75384 0.87763" fill="white"/>
</svg>
