<svg width="106" height="105" viewBox="0 0 106 105" fill="none" xmlns="http://www.w3.org/2000/svg">
<rect x="1.75" y="1.25" width="102.5" height="102.5" rx="51.25" fill="#01AFD2"/>
<rect x="1.75" y="1.25" width="102.5" height="102.5" rx="51.25" stroke="white" stroke-width="2.5"/>
<path fill-rule="evenodd" clip-rule="evenodd" d="M32.7193 27.6971C34.4299 25.9679 36.7147 25 39.775 25C42.4252 25 44.653 26.0368 46.1878 27.8083C47.6894 29.5414 48.4 31.8232 48.4 34.1667V39.1523C49.6147 38.9256 51.1524 38.75 53 38.75C54.8476 38.75 56.3853 38.9256 57.6 39.1523V34.1667C57.6 31.8232 58.3106 29.5414 59.8122 27.8083C61.347 26.0368 63.5748 25 66.225 25C69.2853 25 71.5701 25.9679 73.2807 27.6971C74.8723 29.306 75.8029 31.4263 76.557 33.3225L76.6485 33.562L86.4532 59.6175C86.4532 59.6175 86.8255 60.6641 86.8722 60.8195C87.2898 62.2096 87.5013 63.6531 87.5 65.1042C87.5 73.331 80.8067 80 72.55 80C64.2933 80 57.6 73.331 57.6 65.1042V56.4444L57.5942 56.443C56.6065 56.1989 55.0674 55.9375 53 55.9375C50.9326 55.9375 49.3935 56.1989 48.4057 56.443L48.4 56.4444V65.1042C48.4 73.331 41.7067 80 33.45 80C25.1933 80 18.5 73.331 18.5 65.1042C18.5 63.6147 18.7194 62.1764 19.1278 60.8193C19.1495 60.72 19.1784 60.6213 19.2143 60.5231C19.3186 60.2188 19.4295 59.9168 19.5469 59.6173L29.443 33.3225C30.1971 31.4263 31.1279 29.306 32.7193 27.6971ZM62.2 65.0906C62.2073 59.4014 66.8384 54.7917 72.55 54.7917C76.916 54.7917 80.6506 57.4852 82.1712 61.2954L82.3664 61.8268C82.721 62.8833 82.9012 63.9901 82.9 65.1042C82.9 70.7995 78.2661 75.4167 72.55 75.4167C66.8358 75.4167 62.2032 70.8027 62.2 65.1099V65.1042M33.45 54.7917C29.0842 54.7917 25.3497 57.4851 23.8288 61.2951L23.6336 61.8271C23.279 62.8835 23.0988 63.9902 23.1 65.1042C23.1 70.7995 27.7339 75.4167 33.45 75.4167C39.1661 75.4167 43.8 70.7995 43.8 65.1042C43.8 59.4088 39.1661 54.7917 33.45 54.7917Z" fill="white"/>
</svg>

